<svg xmlns="http://www.w3.org/2000/svg" viewBox="0 0 60.56 60.56">
    <path d="M57.81 23.02h2.74v5.36h-2.74zM22.91 16.57h5.36v2.74h-5.36z" />
    <path d="M56.55 49.39l-1.3-.82 2.53-12.6-4.74-1.08.14-.57 3.76.87 1.68-7.3-2.85-.65 1.78-7.73c.74-3.22.45-5.01-2.77-5.75L34.73 9.13c-3.22-.74-4.15.26-4.9 3.48l-1.89 8.22-2.85-.66-1.68 7.29 4.73 1.1-1.23 5.34 2.04 2.26 20.17 4.65 2.46-1.23-1.34 5.82-5.68-3.59s-8.39-4.5-10.73-2.15L29.7 43.8l-4.17-4.17 2.43-10.54-5.58-1.29-1.85 8.03a5.97 5.97 0 00-5.7 1.56L4.7 47.5c-1.14 1.15-3.19 2.65-4.7 4.16h58.91c-.64-.7-1.5-1.41-2.36-2.27zM29.7 25.76a2.45 2.45 0 11-4.78-1.1 2.45 2.45 0 014.78 1.1zm27.02 5.96a2.45 2.45 0 11-4.79-1.1 2.45 2.45 0 014.79 1.1zM45.96 34l-12.15-2.8 1.4-6.08 12.15 2.8-1.4 6.08zM31.7 19.22l1.72-7.44 21.63 4.98-1.72 7.45-21.63-4.98z" />
</svg>