<svg xmlns="http://www.w3.org/2000/svg" viewBox="0 0 381.6 381.6">
  <path d="M325.7 55.9c-36-36-84-55.9-134.9-55.9-51 0-98.9 19.8-135 55.9-36 36-55.8 84-55.8 134.9s19.8 98.9 55.9 135c36 36 84 55.8 134.9 55.8 51 0 98.9-19.9 135-55.9 36-36 55.8-84 55.8-134.9s-19.9-98.9-55.9-135zm-7.8 79.9c2 .8 3.5 2.3 4.3 4.3 2.2 5.7 4 11.5 5.4 17.4a7.7 7.7 0 01-6 9.4l-74.9 15.3-1.6.2a7.7 7.7 0 01-3.1-14.8l69.8-31.7c2-1 4.1-1 6.1-.1zM235.8 119l5.4-48.8a7.7 7.7 0 0111.1-6 140.9 140.9 0 0141 30.2 7.7 7.7 0 01-2.3 12.4l-44.3 20a7.7 7.7 0 01-11-7.8zm-59.6-66a7.7 7.7 0 015.4-2.7c6.1-.4 12.3-.4 18.4 0a7.8 7.8 0 017.2 8.5l-8.7 77.2a7.7 7.7 0 01-15.4 0l-8.7-77.2c-.2-2 .4-4.2 1.8-5.8zm14.6 114.5a23.3 23.3 0 110 46.6 23.3 23.3 0 010-46.6zM88.2 94.4a140.9 140.9 0 0141-30.3 7.7 7.7 0 0111.1 6.1l5.5 48.8a7.7 7.7 0 01-10.9 7.9l-44.3-20.1a7.8 7.8 0 01-2.4-12.4zm-34.3 63c1.5-5.8 3.3-11.6 5.5-17.3a7.7 7.7 0 0110.4-4.2l69.8 31.7a7.7 7.7 0 01-4.7 14.6l-75-15.3a7.7 7.7 0 01-6-9.4zM74 262.4a7.7 7.7 0 01-6.8-4 140 140 0 01-15.7-46.7 7.7 7.7 0 019.2-8.7l46.5 9.5a7.7 7.7 0 014.1 12.8l-31.6 34.6a7.7 7.7 0 01-5.7 2.5zm48.2 48.8a7.8 7.8 0 01-6-1c-5-3-9.9-6.5-14.4-10.3a7.7 7.7 0 01-.9-11.2l50.6-55.3a7.7 7.7 0 0112.4 9L127 307.5a7.7 7.7 0 01-4.8 3.7zm98.3 14.2a7.7 7.7 0 01-5.7 4.3 141.2 141.2 0 01-48 0 7.7 7.7 0 01-5.5-11.5l22.8-40a7.7 7.7 0 0113.4 0l22.8 40a7.7 7.7 0 01.2 7.2zm62.2-30.9c-.2 2.1-1.2 4-2.9 5.4-4.5 3.8-9.4 7.3-14.4 10.4a7.7 7.7 0 01-10.8-2.8l-37-65a7.7 7.7 0 0112.5-9l50.6 55.2a7.7 7.7 0 012 5.8zm31.7-36.1a7.7 7.7 0 01-12.5 1.5l-31.6-34.6a7.7 7.7 0 014.1-12.8l46.5-9.5a7.7 7.7 0 019.2 8.7 140 140 0 01-15.7 46.7z" />
</svg>
