<svg xmlns="http://www.w3.org/2000/svg" viewBox="0 0 48 48" fill="currentColor">
    <path d="M41 42h-1a55 55 0 0 1-12 4h13a2 2 0 0 0 0-4ZM7 13a117 117 0 0 0 18-1c6-1 12-3 17-6a2 2 0 0 0 1-3 2 2 0 0 0-2-1 2 2 0 0 0-1 0C32 7 18 9 7 9a2 2 0 0 0-2 1 2 2 0 0 0 0 1 2 2 0 0 0 2 2Zm0 11a118 118 0 0 0 18-1c6-1 12-3 17-6a4 4 0 0 0 1-1v-2a3 3 0 0 0-1 0h-1l-2-1h-2l-6-1a92 92 0 0 1-14 2l1 1 10 1h5c-7 3-18 4-26 4a2 2 0 0 0-2 1 2 2 0 0 0 0 1 2 2 0 0 0 2 2Zm0 11a118 118 0 0 0 18-1c6-1 12-3 17-6l1-1v-1h-1v-1h-3l-2-1-6-1a92 92 0 0 1-14 3h1l10 1h5c-7 3-18 4-26 4a2 2 0 0 0-2 1 2 2 0 0 0 0 1 2 2 0 0 0 2 2Zm35 4 1-1v-1h-1v-1h-3l-2-1-6-1a92 92 0 0 1-14 3h1l10 1h5c-7 3-18 4-26 4a2 2 0 0 0 0 4c4 0 18 0 28-4a36 36 0 0 0 7-3Z"/>
</svg>