<svg xmlns="http://www.w3.org/2000/svg" viewBox="0 0 26 26">
  <path d="M12 24.6h-1s0-.2.3-.3c.2-.2 0-.4-.1-.5l-1-1c-.1-.1-.3-.3-.7-.3H8.1l.7-.7c.3-.2.2-.6.1-.7l-.8-1.6s-.2-.3-.5-.3H6.3s.4-.5 1-.9c0 0 .2-.3.1-.7l-.4-2c0-.1-.2-.4-.5-.4H5.4l1-1c.1 0 .3 0 .4-.7v-.4-1.6c.1-.5-.2-.6-.3-.6H5.4l1.3-1c.2 0 .4-.2.5-.7l.6-1.7c.2-.5-.2-.6-.4-.6h-1c-.2 0 .7-.6 1.6-1 .2 0 .6-.2.9-.7L9.7 4c.3-.4 0-.4-.2-.4H8.2l2.2-.9c.2 0 .5 0 .8-.4l.9-.7c.3-.2 0-.2 0-.2h-1.6l2.6-.5c.7-.4 1.9-.7 2.6-.9a8 8 0 00-.4 0H9.5C9 0 8.7.1 8.2.3c-.3.1-.4.5-.2.6.2.1 1.1.4 1 .5H6.1l-.7.7c-.1.1-.2.5 0 .6.3 0 1.4.8 1.2.9-.1 0-1.6.2-2 .1-.4 0-.6 0-.7.2-.4.5-.4.7-.7 1.3v.7c.3.1 1 .5 1.6 1l-2 .2c-.2 0-.4 0-.5.2L2 9c0 .2 0 .5.3.7.2 0 1.8 1.2 1.7 1.2l-2 .3c-.2 0-.3.2-.4.5v1.7c0 .3.3.6.5.7L4 15l-1.8.3c-.4 0-.4.4-.4.7l.3 1.5c0 .2.3.4.5.5s2.5 1 2.4 1l-1.8.4c-.3 0-.3.5-.1.8l.5 1 .4.3c.2 0 3 .8 2.8.9l-1.9.1c-.3.1-.2.4 0 .6.3.5.2.4.7.8.2.2.8.1.8.2l2.8.4-1.9.3c-.2 0 0 .3.2.4a6.3 6.3 0 001.5.6h1.4l5.2.1c-.9-.3-2.2-.7-3-1.2l-.6-.2z" />
  <path d="M24.4 11.8c0-.3-.1-.5-.3-.5l-.2-1c.2-.1.3-.4.3-.7l-.5-2.1c-.1-.3-.5-.4-.5-.4l-.4-.8c.2-.2.3-.5.1-.7L22 3.8c-.1-.2-.6-.1-.7-.1l-.4-.5c.2-.3.1-.6 0-.8l-1.3-1.1c-.2-.2-1 0-1 0l-.1-.2c0-.3 0-.6-.3-.6a6 6 0 00-2.5-.5l-2.1 1c.6.1-.9 1.2-.8.6l-1.2 1.1c.6 0-.5 1.6-.7.9-.5.6-1 1.3-1.4 2.1.6-.2 0 1.7-.5 1.2l-.8 2.7c.6-.2.3 1.5-.2 1.2a18.9 18.9 0 000 2.7c.4-.2.7 1.4 0 1.4 0 1 .3 1.9.5 2.7.3-.3 1.1 1 .4 1.3.3.8.6 1.5 1 2.1.2-.3 1.2.9.6 1l1.4 1.7c.1-.4 1.2.4.8.6.9.7 1.8 1.3 2.9 1.7a492 492 0 011.8-.1l.6-.7h1a8 8 0 001.3-1c.2-.2.2-.5.1-.8.2-.2.3-.2.4-.5h.7l1-1.6c.2-.3.1-.6 0-.8l.3-.8h.3l.3-.3.6-2c0-.3 0-.6-.2-.7l.1-1h.1c.2 0 .3-.2.4-.5a19.8 19.8 0 000-3.4zm-8 9.5c-2.6 0-4.8-3.7-4.8-8.3 0-4.6 2.2-8.3 4.9-8.3s5 3.7 5 8.3c0 4.6-2.3 8.3-5 8.3z" />
</svg>
